<svg width="173" height="140" viewBox="0 0 173 140" fill="none" xmlns="http://www.w3.org/2000/svg">
<g clip-path="url(#clip0_1101_20958)">
<path d="M121.365 44.91H119.575V13.3622H64.4141V11.5759H121.365V44.91Z" fill="#FB535B"/>
<path d="M153.026 55.1818H73.9178V82.3351H153.026V55.1818Z" fill="#F69CA1"/>
<path d="M153.939 83.2461H73.0229V54.2886H153.939V83.2461ZM74.8127 81.4597H152.149V56.075H74.8127V81.4597Z" fill="#FB535B"/>
<path d="M82.1508 27.8678H144.793C146.977 27.8678 149.071 28.7336 150.615 30.2746C152.159 31.8157 153.026 33.9058 153.026 36.0852V55.021H73.9178V36.0852C73.9178 33.9058 74.7852 31.8157 76.3292 30.2746C77.8732 28.7336 79.9673 27.8678 82.1508 27.8678V27.8678Z" fill="white"/>
<path d="M153.939 55.9321H73.0229V36.0852C73.0277 33.6704 73.9909 31.3558 75.7017 29.6482C77.4124 27.9407 79.7314 26.9793 82.1508 26.9746H144.793C147.212 26.9793 149.531 27.9407 151.242 29.6482C152.953 31.3558 153.916 33.6704 153.921 36.0852L153.939 55.9321ZM74.8127 54.1457H152.149V36.0852C152.144 34.1442 151.37 32.284 149.995 30.9115C148.619 29.5389 146.756 28.7657 144.811 28.761H82.1687C80.224 28.7657 78.3603 29.5389 76.9851 30.9115C75.61 32.284 74.8354 34.1442 74.8306 36.0852L74.8127 54.1457Z" fill="#FB535B"/>
<path d="M152.954 81.9242H73.8462V109.077H152.954V81.9242Z" fill="white"/>
<path d="M153.849 109.988H72.9155V81.031H153.831L153.849 109.988ZM74.7232 108.202H152.06V82.8174H74.7053L74.7232 108.202Z" fill="#FB535B"/>
<path d="M144.722 135.73H82.0793C80.9981 135.73 79.9275 135.518 78.9286 135.105C77.9298 134.692 77.0221 134.087 76.2576 133.324C75.4931 132.561 74.8867 131.655 74.473 130.658C74.0592 129.661 73.8463 128.592 73.8463 127.513V108.577L152.954 108.577V127.513C152.954 129.692 152.087 131.783 150.543 133.324C148.999 134.865 146.905 135.73 144.722 135.73V135.73Z" fill="#F69CA1"/>
<path d="M144.722 136.624H82.0793C79.6599 136.619 77.3409 135.658 75.6301 133.95C73.9193 132.242 72.9561 129.928 72.9514 127.513V107.684H153.867V127.513C153.863 129.931 152.897 132.248 151.182 133.956C149.468 135.664 147.144 136.624 144.722 136.624ZM74.7054 109.47V127.513C74.7101 129.454 75.4848 131.314 76.8599 132.687C78.235 134.059 80.0988 134.833 82.0435 134.837H144.686C146.631 134.833 148.494 134.059 149.869 132.687C151.244 131.314 152.019 129.454 152.024 127.513V109.47H74.7054Z" fill="#FB535B"/>
<path d="M141.518 45.2316C143.683 45.2316 145.437 43.48 145.437 41.3194C145.437 39.1587 143.683 37.4072 141.518 37.4072C139.353 37.4072 137.598 39.1587 137.598 41.3194C137.598 43.48 139.353 45.2316 141.518 45.2316Z" fill="#FB535B"/>
<path d="M131.137 45.4996C133.302 45.4996 135.057 43.748 135.057 41.5874C135.057 39.4267 133.302 37.6751 131.137 37.6751C128.972 37.6751 127.217 39.4267 127.217 41.5874C127.217 43.748 128.972 45.4996 131.137 45.4996Z" fill="#FB535B"/>
<path d="M141.518 72.5456C143.683 72.5456 145.437 70.794 145.437 68.6334C145.437 66.4727 143.683 64.7212 141.518 64.7212C139.353 64.7212 137.598 66.4727 137.598 68.6334C137.598 70.794 139.353 72.5456 141.518 72.5456Z" fill="#FB535B"/>
<path d="M131.137 72.8136C133.302 72.8136 135.057 71.062 135.057 68.9014C135.057 66.7407 133.302 64.9892 131.137 64.9892C128.972 64.9892 127.217 66.7407 127.217 68.9014C127.217 71.062 128.972 72.8136 131.137 72.8136Z" fill="#FB535B"/>
<path d="M141.518 99.288C143.683 99.288 145.437 97.5364 145.437 95.3758C145.437 93.2151 143.683 91.4636 141.518 91.4636C139.353 91.4636 137.598 93.2151 137.598 95.3758C137.598 97.5364 139.353 99.288 141.518 99.288Z" fill="#FB535B"/>
<path d="M131.137 99.5559C133.302 99.5559 135.057 97.8044 135.057 95.6437C135.057 93.4831 133.302 91.7315 131.137 91.7315C128.972 91.7315 127.217 93.4831 127.217 95.6437C127.217 97.8044 128.972 99.5559 131.137 99.5559Z" fill="#FB535B"/>
<path d="M141.285 125.923C143.45 125.923 145.205 124.172 145.205 122.011C145.205 119.85 143.45 118.099 141.285 118.099C139.12 118.099 137.365 119.85 137.365 122.011C137.365 124.172 139.12 125.923 141.285 125.923Z" fill="#FB535B"/>
<path d="M130.886 126.209C133.051 126.209 134.806 124.457 134.806 122.297C134.806 120.136 133.051 118.385 130.886 118.385C128.722 118.385 126.967 120.136 126.967 122.297C126.967 124.457 128.722 126.209 130.886 126.209Z" fill="#FB535B"/>
<path d="M153.295 119.206V117.42C156.143 117.42 158.874 116.291 160.888 114.281C162.902 112.271 164.033 109.544 164.033 106.702C164.033 103.859 162.902 101.133 160.888 99.1225C158.874 97.1124 156.143 95.9831 153.295 95.9831V94.1967C156.61 94.2201 159.783 95.5451 162.128 97.8852C164.472 100.225 165.8 103.392 165.823 106.702C165.8 110.011 164.472 113.178 162.128 115.518C159.783 117.858 156.61 119.183 153.295 119.206V119.206Z" fill="#FB535B"/>
<path d="M153.617 70.7949V69.0085C156.489 69.0085 159.243 67.8699 161.273 65.843C163.304 63.8162 164.445 61.0672 164.445 58.2009C164.445 56.7857 164.164 55.3846 163.619 54.0784C163.074 52.7721 162.275 51.5865 161.268 50.5901C160.261 49.5936 159.067 48.8059 157.754 48.2726C156.44 47.7392 155.034 47.4707 153.617 47.4825V45.6961C156.948 45.696 160.144 47.0106 162.507 49.3532C164.871 51.6957 166.211 54.8762 166.235 58.2009C166.235 61.541 164.905 64.7444 162.539 67.1062C160.173 69.4681 156.963 70.7949 153.617 70.7949Z" fill="#FB535B"/>
<path d="M152.901 86.3009V84.5145C154.323 84.5145 155.731 84.235 157.045 83.6918C158.358 83.1487 159.552 82.3526 160.558 81.349C161.563 80.3454 162.361 79.154 162.905 77.8427C163.449 76.5315 163.729 75.1261 163.729 73.7068C163.729 72.2917 163.448 70.8906 162.903 69.5843C162.358 68.278 161.559 67.0925 160.552 66.096C159.546 65.0995 158.351 64.3119 157.038 63.7785C155.725 63.2451 154.319 62.9766 152.901 62.9884V61.202C156.232 61.2019 159.428 62.5165 161.792 64.8591C164.155 67.2016 165.495 70.3821 165.519 73.7068C165.519 77.047 164.189 80.2503 161.823 82.6122C159.457 84.974 156.247 86.3009 152.901 86.3009V86.3009Z" fill="#FB535B"/>
<path d="M153.456 90.9098C154.737 90.9098 155.966 91.4179 156.873 92.3225C157.779 93.227 158.288 94.4539 158.288 95.7331C158.288 97.0123 157.779 98.2391 156.873 99.1436C155.966 100.048 154.737 100.556 153.456 100.556" fill="#FB535B"/>
<path d="M153.975 42.8914C154.611 42.8914 155.241 43.0168 155.828 43.2603C156.415 43.5038 156.949 43.8607 157.398 44.3104C157.847 44.7602 158.203 45.294 158.444 45.8813C158.686 46.4685 158.809 47.0976 158.807 47.7325C158.807 49.0118 158.298 50.2386 157.392 51.1432C156.485 52.0477 155.256 52.5558 153.975 52.5558" fill="#FB535B"/>
<path d="M29.7641 137.088C28.5897 137.084 27.4643 136.618 26.6305 135.793C25.7968 134.967 25.3216 133.848 25.3075 132.676L24.8064 52.2879C24.8024 51.7048 24.9142 51.1268 25.1354 50.5871C25.3566 50.0475 25.6828 49.5569 26.095 49.1438C26.9252 48.3105 28.0499 47.8358 29.2271 47.8219L77.9986 47.5182C79.1761 47.5181 80.3061 47.9812 81.1437 48.8072C81.9813 49.6332 82.4589 50.7554 82.473 51.9306L82.9742 132.318C82.9782 132.902 82.8663 133.48 82.6452 134.019C82.424 134.559 82.0978 135.049 81.6855 135.463C81.2767 135.878 80.7895 136.209 80.2519 136.436C79.7144 136.663 79.1371 136.781 78.5534 136.784L29.7641 137.088Z" fill="#FFECF0"/>
<path d="M78.0164 48.3399C78.9658 48.3399 79.8762 48.7164 80.5475 49.3864C81.2188 50.0564 81.596 50.9651 81.596 51.9127L82.0971 132.301C82.0971 133.248 81.72 134.157 81.0487 134.827C80.3774 135.497 79.4669 135.873 78.5175 135.873L29.764 136.177C28.8146 136.177 27.9042 135.801 27.2329 135.131C26.5616 134.461 26.1844 133.552 26.1844 132.604L25.6654 52.2164C25.6654 51.2688 26.0425 50.3601 26.7138 49.6901C27.3851 49.02 28.2956 48.6436 29.2449 48.6436L77.9985 48.3399H78.0164ZM77.9985 46.5535L29.2449 46.8572C27.8209 46.8572 26.4552 47.4219 25.4482 48.4269C24.4413 49.4319 23.8756 50.7951 23.8756 52.2164L24.3947 132.604C24.3947 134.026 24.9603 135.389 25.9673 136.394C26.9742 137.399 28.34 137.963 29.764 137.963L78.5533 137.66C79.9732 137.649 81.3311 137.077 82.3298 136.07C83.3195 135.064 83.8725 133.71 83.869 132.301L83.3678 51.9127C83.3678 50.4913 82.8022 49.1282 81.7952 48.1232C80.7883 47.1181 79.4225 46.5535 77.9985 46.5535V46.5535Z" fill="#FB535B"/>
<path d="M64.3425 53.9492L43.939 54.0921C43.5023 54.0921 43.0835 53.919 42.7747 53.6108C42.4659 53.3026 42.2925 52.8845 42.2925 52.4487V48.0363L65.9891 47.8933V52.3057C65.994 52.5229 65.9548 52.7388 65.8738 52.9404C65.7928 53.142 65.6716 53.3252 65.5178 53.4787C65.3639 53.6323 65.1804 53.7532 64.9784 53.8341C64.7764 53.915 64.5601 53.9541 64.3425 53.9492V53.9492Z" fill="#FB535B"/>
<path d="M40.0655 82.9964L36.2177 82.9488C35.1009 82.935 34.1843 83.8235 34.1705 84.9333C34.1567 86.0432 35.051 86.9541 36.1678 86.9679L40.0156 87.0155C41.1324 87.0293 42.049 86.1408 42.0628 85.031C42.0766 83.9211 41.1823 83.0102 40.0655 82.9964Z" fill="#F69CA1"/>
<path d="M75.4179 83.7267L71.5706 83.8035C70.4539 83.8258 69.5666 84.7435 69.5888 85.8532C69.6111 86.9629 70.5344 87.8444 71.6512 87.8221L75.4984 87.7453C76.6151 87.723 77.5024 86.8053 77.4802 85.6956C77.458 84.5859 76.5346 83.7044 75.4179 83.7267Z" fill="#F69CA1"/>
<path d="M45.2277 79.1196C43.3716 79.1207 41.5876 78.4023 40.252 77.1159C38.9164 75.8294 38.1336 74.0755 38.0686 72.2241C38.0686 71.7503 38.2572 71.2959 38.5928 70.9609C38.9285 70.6259 39.3837 70.4377 39.8584 70.4377C40.3331 70.4377 40.7883 70.6259 41.124 70.9609C41.4596 71.2959 41.6482 71.7503 41.6482 72.2241C41.6897 73.1435 42.085 74.0115 42.7519 74.6471C43.4187 75.2828 44.3056 75.637 45.2277 75.6361H45.3172C46.2452 75.6041 47.1244 75.2133 47.7692 74.5464C48.0871 74.2142 48.3348 73.8216 48.4977 73.392C48.6607 72.9624 48.7355 72.5045 48.7178 72.0454C48.7178 71.5717 48.9063 71.1172 49.242 70.7822C49.5776 70.4472 50.0329 70.259 50.5076 70.259C50.9823 70.259 51.4375 70.4472 51.7731 70.7822C52.1088 71.1172 52.2974 71.5717 52.2974 72.0454C52.3419 73.9184 51.6478 75.7338 50.3644 77.1009C49.0646 78.4541 47.2841 79.2432 45.4067 79.2982L45.2277 79.1196Z" fill="#FB535B"/>
<path d="M65.0047 78.8159C63.1486 78.817 61.3646 78.0986 60.029 76.8121C58.6934 75.5257 57.9105 73.7718 57.8456 71.9204C57.8456 71.4466 58.0342 70.9922 58.3698 70.6572C58.7055 70.3222 59.1607 70.134 59.6354 70.134C60.11 70.134 60.5653 70.3222 60.901 70.6572C61.2366 70.9922 61.4251 71.4466 61.4251 71.9204C61.4666 72.8398 61.862 73.7078 62.5289 74.3434C63.1957 74.979 64.0826 75.3333 65.0047 75.3324C65.9227 75.2865 66.7878 74.8899 67.4209 74.2248C68.054 73.5597 68.4065 72.677 68.4053 71.7596C68.4053 71.2858 68.5939 70.8314 68.9295 70.4964C69.2652 70.1614 69.7204 69.9732 70.1951 69.9732C70.6698 69.9732 71.125 70.1614 71.4606 70.4964C71.7963 70.8314 71.9849 71.2858 71.9849 71.7596C72.0143 73.6277 71.3095 75.4329 70.0215 76.7886C68.7335 78.1443 66.9647 78.9425 65.0942 79.0124L65.0047 78.8159Z" fill="#FB535B"/>
<path d="M54.5704 87.2477C56.0531 87.2477 57.2551 86.048 57.2551 84.5681C57.2551 83.0882 56.0531 81.8885 54.5704 81.8885C53.0877 81.8885 51.8857 83.0882 51.8857 84.5681C51.8857 86.048 53.0877 87.2477 54.5704 87.2477Z" fill="#FB535B"/>
<path d="M171.21 136.427H12.8863C11.8979 136.427 11.0966 137.227 11.0966 138.214C11.0966 139.2 11.8979 140 12.8863 140H171.21C172.199 140 173 139.2 173 138.214C173 137.227 172.199 136.427 171.21 136.427Z" fill="#FB535B"/>
<path d="M52.4585 27.2962H50.6687V47.9112H52.4585V27.2962Z" fill="#FB535B"/>
<path d="M51.2802 27.5101C58.6146 27.5101 64.5603 21.5756 64.5603 14.2551C64.5603 6.9345 58.6146 1 51.2802 1C43.9457 1 38 6.9345 38 14.2551C38 21.5756 43.9457 27.5101 51.2802 27.5101Z" fill="white"/>
<path d="M51.5 18C51.8971 18.0022 52.2774 18.1609 52.5582 18.4417C52.8391 18.7226 52.9978 19.1028 53 19.5C52.9978 19.8971 52.8391 20.2774 52.5582 20.5582C52.2774 20.8391 51.8971 20.9978 51.5 21C51.1029 20.9978 50.7226 20.8391 50.4418 20.5582C50.1609 20.2774 50.0022 19.8971 50 19.5C50.0022 19.1028 50.1609 18.7226 50.4418 18.4417C50.7226 18.1609 51.1029 18.0022 51.5 18Z" fill="#FB535B"/>
<path d="M51.4383 28.2966C47.6802 28.2918 44.0775 26.7997 41.4202 24.1474C38.7629 21.4951 37.2679 17.8992 37.2632 14.1483C37.2679 10.3974 38.7629 6.80143 41.4202 4.14914C44.0775 1.49685 47.6802 0.00472704 51.4383 0C55.1963 0.00472704 58.799 1.49685 61.4563 4.14914C64.1136 6.80143 65.6086 10.3974 65.6133 14.1483C65.6086 17.8992 64.1136 21.4951 61.4563 24.1474C58.799 26.7997 55.1963 28.2918 51.4383 28.2966V28.2966ZM51.4383 1.7864C48.1549 1.79112 45.0074 3.09504 42.6858 5.41232C40.3641 7.7296 39.0577 10.8711 39.053 14.1483C39.0624 17.4239 40.3703 20.5628 42.691 22.879C45.0116 25.1953 48.1564 26.5007 51.4383 26.5102C54.7216 26.5054 57.8691 25.2015 60.1907 22.8842C62.5124 20.5669 63.8188 17.4254 63.8235 14.1483C63.8235 10.8697 62.5187 7.72541 60.196 5.40711C57.8733 3.08881 54.723 1.7864 51.4383 1.7864V1.7864Z" fill="#FB535B"/>
<path d="M27.4373 39.1221H27.1689C26.936 39.0872 26.7124 39.0068 26.5107 38.8855C26.3091 38.7642 26.1335 38.6044 25.9938 38.4152C25.8542 38.226 25.7533 38.0112 25.6969 37.783C25.6406 37.5549 25.6299 37.3179 25.6654 37.0856L27.2405 26.7066C27.3112 26.2409 27.5634 25.8219 27.9422 25.5409C28.321 25.2598 28.7956 25.1395 29.2629 25.2061C29.7295 25.2767 30.1493 25.5284 30.4309 25.9065C30.7124 26.2846 30.833 26.7584 30.7663 27.2247L29.2092 37.6215C29.141 38.0412 28.9252 38.4228 28.6004 38.6979C28.2757 38.9729 27.8632 39.1234 27.4373 39.1221V39.1221Z" fill="#FB535B"/>
<path d="M17.5935 44.6957C17.1476 44.6897 16.7199 44.5176 16.3944 44.2133L7.26652 35.853C7.09155 35.6941 6.94987 35.5022 6.84967 35.2883C6.74946 35.0745 6.69273 34.8429 6.68275 34.607C6.67276 34.3711 6.70973 34.1356 6.7915 33.9141C6.87327 33.6925 6.99822 33.4894 7.15914 33.3164C7.31832 33.1417 7.51057 33.0003 7.72484 32.9003C7.93911 32.8003 8.17114 32.7436 8.40747 32.7337C8.64381 32.7237 8.87978 32.7606 9.10175 32.8422C9.32371 32.9238 9.52722 33.0486 9.7006 33.2092L18.8106 41.5873C19.1586 41.9077 19.3653 42.3526 19.3854 42.8246C19.4055 43.2967 19.2374 43.7575 18.9179 44.1062C18.7506 44.2912 18.5464 44.4393 18.3183 44.5408C18.0902 44.6423 17.8433 44.6951 17.5935 44.6957Z" fill="#FB535B"/>
<path d="M1.78976 56.9683C1.36851 56.9759 0.958059 56.835 0.630672 56.5703C0.303286 56.3056 0.0799583 55.9341 -2.12974e-05 55.5213C-0.0470774 55.2914 -0.0483223 55.0544 -0.0036262 54.8241C0.0410699 54.5937 0.13082 54.3744 0.26046 54.1786C0.390101 53.9829 0.55709 53.8145 0.751928 53.6832C0.946766 53.5519 1.16565 53.4602 1.396 53.4133L11.723 51.3768C11.9546 51.3301 12.1932 51.3296 12.425 51.3753C12.6568 51.421 12.8772 51.5122 13.0735 51.6434C13.2699 51.7746 13.4382 51.9433 13.5689 52.1397C13.6996 52.3362 13.79 52.5566 13.8349 52.7881C13.8818 53.0192 13.8823 53.2573 13.8365 53.4887C13.7906 53.72 13.6994 53.9401 13.568 54.1361C13.4365 54.332 13.2675 54.5 13.0706 54.6305C12.8738 54.7609 12.653 54.8512 12.421 54.896L2.09399 56.9325L1.78976 56.9683Z" fill="#FB535B"/>
<rect x="50" y="7" width="3" height="10" rx="1.5" fill="#FB535B"/>
</g>
<defs>
<clipPath id="clip0_1101_20958">
<rect width="173" height="140" fill="white"/>
</clipPath>
</defs>
</svg>
